<svg version="1.1" id="Layer_1" xmlns="http://www.w3.org/2000/svg" xmlns:xlink="http://www.w3.org/1999/xlink" x="0px" y="0px"
	 width="100%" viewBox="0 0 1024 1024" enable-background="new 0 0 1024 1024" xml:space="preserve">
<rect width="100%" height="100%" fill="transparent"/>
<circle cx="512" cy="512" r="500" fill="#FFFFFF"/>
<path fill="#000000" opacity="1.000000" stroke="none" 
	d="
M497.261780,441.661804 
	C491.659576,428.818176 485.044891,417.152191 473.914520,408.704437 
	C467.915100,404.151001 461.243500,401.278900 453.617584,401.441284 
	C450.003754,401.518188 448.577667,400.404449 448.612030,396.620544 
	C448.758728,380.456268 448.754028,364.289032 448.602020,348.124786 
	C448.567291,344.431396 450.024841,343.749329 453.382172,343.845917 
	C468.032990,344.267303 482.695190,344.301941 497.345032,344.747131 
	C502.619476,344.907410 506.853821,343.166656 510.187042,339.328033 
	C514.897705,333.903076 518.182678,327.702271 520.182678,320.105347 
	C514.783508,320.763794 511.024261,323.224762 507.075378,325.175598 
	C503.373901,327.004181 500.221527,328.191467 497.901520,322.885742 
	C496.300873,319.225128 492.647339,317.378723 488.447632,317.424927 
	C476.793976,317.553162 465.123108,316.718781 453.489990,317.920746 
	C449.459564,318.337219 447.639069,316.854675 447.662476,312.659393 
	C447.753693,296.327637 447.769562,279.994293 447.624329,263.663208 
	C447.590363,259.843323 449.213501,258.802460 452.719269,258.819794 
	C475.717316,258.933533 498.716248,258.996155 521.714172,258.899017 
	C525.900269,258.881348 527.198730,260.494171 527.160767,264.529724 
	C527.025757,278.860443 527.139343,293.193756 527.190247,307.525940 
	C527.212341,313.757996 527.722717,314.221802 533.708618,313.535370 
	C541.804077,312.607056 549.885071,311.541901 557.991272,310.723175 
	C560.686523,310.450928 561.864380,309.327728 561.861267,306.651672 
	C561.835083,284.486511 561.810608,262.321259 561.874451,240.156250 
	C561.885010,236.492004 559.701538,236.273331 556.948669,236.280685 
	C541.283081,236.322540 525.617371,236.306641 509.951660,236.310883 
	C491.286163,236.315948 472.619080,236.192413 453.956238,236.418503 
	C449.348785,236.474335 447.639709,234.958588 447.873596,230.411713 
	C448.130096,225.425125 448.043823,220.412323 447.901184,215.416824 
	C447.807709,212.143295 448.943756,210.363678 452.417206,210.383560 
	C454.578705,210.395935 456.741333,210.111969 458.903564,210.110321 
	C498.734406,210.080002 538.565247,210.067215 578.396057,210.064682 
	C585.100830,210.064270 585.284485,210.277420 585.276245,217.194839 
	C585.142334,329.687561 584.996155,442.180298 584.877319,554.673035 
	C584.841431,588.660583 584.878906,622.648254 584.885193,656.635864 
	C584.892273,694.456665 584.908203,732.277527 584.898743,770.098328 
	C584.898071,772.927612 584.506775,775.770325 584.679321,778.583374 
	C585.004822,783.890137 582.966431,785.534668 577.468445,785.515015 
	C521.323547,785.314148 465.177551,785.416687 409.031860,785.424438 
	C402.507660,785.425354 402.564392,785.397888 402.610138,778.794678 
	C402.673645,769.629089 402.633698,760.462708 402.653259,751.296692 
	C402.667542,744.617004 402.663727,744.413452 409.535889,743.914368 
	C423.787323,742.879272 436.753143,738.138245 449.096649,731.164978 
	C467.658173,720.678772 480.052979,704.702576 489.759888,686.251343 
	C500.840332,665.189148 506.258850,642.442261 509.656464,619.106445 
	C514.158508,588.184692 515.029968,557.036560 513.424255,525.938477 
	C511.947906,497.346466 508.144623,468.955811 497.261780,441.661804 
z"/>
<path fill="#000000" opacity="1.000000" stroke="none" 
	d="
M468.931671,534.007080 
	C468.745697,518.169373 467.186829,502.934204 464.325897,486.691559 
	C466.138733,487.792542 466.831482,487.991791 467.170990,488.451782 
	C476.061066,500.496490 485.198242,512.439575 488.909973,527.342529 
	C490.537659,533.877930 490.785004,540.609314 488.641815,547.060425 
	C484.840271,558.503418 485.817902,569.664795 489.873291,580.738770 
	C493.679626,591.132751 495.536987,601.872742 495.919098,612.900146 
	C495.953644,613.896606 496.023071,614.901794 495.163055,615.753845 
	C493.364197,616.537598 492.483032,615.149292 491.573364,614.014160 
	C484.913940,605.704712 478.306213,597.353699 471.632721,589.055542 
	C467.166138,583.501587 466.020569,577.359253 467.141052,570.329041 
	C469.029388,558.480835 469.018555,546.482361 468.931671,534.007080 
z"/>
</svg>